<svg viewBox="0 0 26 26" fill="none" xmlns="http://www.w3.org/2000/svg">
    <path d="M15.7415 1.90098L13.6116 0.681298C13.5794 0.662793 13.5397 0.662793 13.5075 0.681298L11.3516 1.92071C11.3194 1.93922 11.2797 1.93922 11.2476 1.92071L9.09157 0.681298C9.05939 0.662793 9.01974 0.662793 8.98755 0.681298L6.85758 1.90098C6.84133 1.91019 6.8313 1.92738 6.8313 1.94599C6.8313 1.96461 6.84133 1.9818 6.85758 1.99101L11.2686 4.5352C11.2849 4.54375 11.3043 4.54375 11.3206 4.5352L15.7366 1.99594C15.756 1.98874 15.7693 1.97071 15.7704 1.95008C15.7715 1.92945 15.7601 1.91015 15.7415 1.90098V1.90098Z" fill="#300D4F" />
    <path d="M20.2613 4.50472L18.1313 3.28133C18.0991 3.26283 18.0595 3.26283 18.0273 3.28133L11.3513 7.1192C11.3191 7.13771 11.2795 7.13771 11.2473 7.1192L4.57131 3.28133C4.53912 3.26283 4.49947 3.26283 4.46729 3.28133L2.33731 4.50472C2.32107 4.51393 2.31104 4.53111 2.31104 4.54973C2.31104 4.56835 2.32107 4.58553 2.33731 4.59474L11.2683 9.73245C11.2843 9.74225 11.3044 9.74225 11.3203 9.73245L20.2563 4.59474C20.2731 4.58645 20.2841 4.56981 20.2852 4.55117C20.2862 4.53253 20.2771 4.51478 20.2613 4.50472V4.50472Z" fill="#300D4F" />
    <path d="M13.5608 11.107V13.5563C13.561 13.5747 13.5709 13.5916 13.587 13.6008C13.6031 13.6099 13.6228 13.6099 13.6388 13.6007L22.5748 8.46295C22.5909 8.45396 22.6009 8.43696 22.6008 8.41855V6.02975C22.6009 5.99268 22.5811 5.95838 22.5489 5.9398C22.5167 5.92122 22.477 5.92119 22.4448 5.93972L13.6128 11.017C13.5805 11.0356 13.5607 11.0699 13.5608 11.107Z" fill="#300D4F" />
    <path d="M13.6388 18.7967L22.5748 13.659C22.5908 13.6492 22.6006 13.632 22.6008 13.6133V11.227C22.6009 11.1899 22.5811 11.1556 22.5489 11.1371C22.5167 11.1185 22.477 11.1185 22.4448 11.137L13.6128 16.2155C13.5803 16.2339 13.5604 16.2683 13.5608 16.3055V18.7535C13.5614 18.7717 13.5715 18.7883 13.5875 18.7971C13.6035 18.806 13.623 18.8058 13.6388 18.7967V18.7967Z" fill="#300D4F" />
    <path d="M11.3 22.5614V12.4069C11.3004 12.3697 11.2805 12.3352 11.248 12.3168L9.19603 11.1366C9.16379 11.1181 9.12407 11.1181 9.09187 11.1367C9.05966 11.1553 9.03988 11.1896 9.03999 11.2267V21.2628C9.04011 21.2999 9.02033 21.3342 8.98812 21.3528C8.95591 21.3714 8.9162 21.3714 8.88396 21.3529L6.83201 20.1726C6.79972 20.1541 6.77988 20.1197 6.78 20.0826V9.80719C6.78011 9.77006 6.76027 9.73572 6.72799 9.71716L4.67603 8.53817C4.6438 8.51964 4.60408 8.51967 4.57187 8.53825C4.53967 8.55683 4.51988 8.59114 4.52 8.6282V18.6631C4.52011 18.7002 4.50033 18.7345 4.46812 18.7531C4.43592 18.7717 4.3962 18.7717 4.36396 18.7532L2.31201 17.5742C2.27973 17.5556 2.25989 17.5213 2.26 17.4842V7.2038C2.26011 7.16668 2.24027 7.13233 2.20799 7.11377L0.156033 5.93972C0.1238 5.92119 0.0840803 5.92122 0.0518752 5.9398C0.0196701 5.95838 -0.000111924 5.99268 6.60513e-07 6.02975V18.8136C-9.34157e-05 18.832 0.00986795 18.849 0.0260061 18.858L11.269 25.3251C11.285 25.3349 11.3051 25.3349 11.321 25.3251L22.569 18.858C22.5852 18.849 22.5951 18.832 22.595 18.8136V16.4248C22.5951 16.3877 22.5754 16.3534 22.5432 16.3348C22.511 16.3163 22.4712 16.3162 22.439 16.3348L11.456 22.6515C11.4238 22.67 11.3841 22.67 11.3519 22.6514C11.3197 22.6328 11.2999 22.5985 11.3 22.5614Z" fill="#300D4F" />
</svg>